HIERARCHY
ROOT Hips
{
     OFFSET 23.92360 97.57650 -34.23290
     CHANNELS 6 Xposition Yposition Zposition Zrotation Xrotation Yrotation
     JOINT Spine
     {
          OFFSET 0.00000 11.89050 0.00000
          CHANNELS 3 Zrotation Xrotation Yrotation
          JOINT Spine1
          {
               OFFSET 0.00000 25.65740 0.12766
               CHANNELS 3 Zrotation Xrotation Yrotation
               JOINT HEad
               {
                    OFFSET 0.00000 8.73416 0.01134
                    CHANNELS 3 Zrotation Xrotation Yrotation
                    End Site
                    {
                         OFFSET -0.29000 12.77420 2.51395
                    }
               }
               JOINT LeftShoulder1
               {
                    OFFSET 8.99000 -0.36225 -0.22000
                    CHANNELS 3 Zrotation Xrotation Yrotation
                    JOINT LeftArm
                    {
                         OFFSET 10.28270 -0.00338 0.32212
                         CHANNELS 3 Zrotation Xrotation Yrotation
                         JOINT LeftForeArm
                         {
                              OFFSET 32.76690 0.09914 -1.42434
                              CHANNELS 3 Zrotation Xrotation Yrotation
                              JOINT LeftHand
                              {
                                   OFFSET 27.56430 0.08536 1.02216
                                   CHANNELS 3 Zrotation Xrotation Yrotation
                                   End Site
                                   {
                                        OFFSET 16.74430 -0.60000 1.50291
                                   }
                              }
                         }
                    }
               }
               JOINT RightShoulder
               {
                    OFFSET -8.99000 -0.36225 -0.22000
                    CHANNELS 3 Zrotation Xrotation Yrotation
                    JOINT RightArm
                    {
                         OFFSET -10.28270 -0.00338 0.32212
                         CHANNELS 3 Zrotation Xrotation Yrotation
                         JOINT RightForeArm
                         {
                              OFFSET -32.89710 0.09914 -1.42434
                              CHANNELS 3 Zrotation Xrotation Yrotation
                              JOINT RightHand
                              {
                                   OFFSET -27.49210 0.08536 1.02216
                                   CHANNELS 3 Zrotation Xrotation Yrotation
                                   End Site
                                   {
                                        OFFSET -16.63120 -0.60000 1.50291
                                   }
                              }
                         }
                    }
               }
          }
     }
     JOINT LeftUpLeg
     {
          OFFSET 8.94580 -8.66707 0.10165
          CHANNELS 3 Zrotation Xrotation Yrotation
          JOINT LeftLeg
          {
               OFFSET 0.00000 -44.42270 1.37270
               CHANNELS 3 Zrotation Xrotation Yrotation
               JOINT LeftFoot
               {
                    OFFSET -0.25355 -42.09240 -1.46059
                    CHANNELS 3 Zrotation Xrotation Yrotation
                    JOINT LeftToes
                    {
                         OFFSET -0.04000 -4.41509 8.49910
                         CHANNELS 3 Zrotation Xrotation Yrotation
                         End Site
                         {
                              OFFSET 0.08000 -0.04745 9.77979
                         }
                    }
               }
          }
     }
     JOINT RightUpLeg
     {
          OFFSET -8.94580 -8.66707 0.10165
          CHANNELS 3 Zrotation Xrotation Yrotation
          JOINT RightLeg
          {
               OFFSET 0.00000 -44.42270 1.37270
               CHANNELS 3 Zrotation Xrotation Yrotation
               JOINT RightFoot
               {
                    OFFSET 0.25355 -42.09240 -1.46059
                    CHANNELS 3 Zrotation Xrotation Yrotation
                    JOINT RightToes
                    {
                         OFFSET 0.04000 -4.41509 8.49910
                         CHANNELS 3 Zrotation Xrotation Yrotation
                         End Site
                         {
                              OFFSET -0.08000 -0.13745 9.77979
                         }
                    }
               }
          }
     }
}
MOTION
Frames: 12
Frame Time: 0.01667
18.05820 100.68000 -9.27765 -16.16560 -49.39460 -81.92750 6.72698 3.51144 0.03126 8.91590 7.74774 0.99849 -21.61110 10.76250 14.83990 0.00000 0.00000 0.00000 -63.95510 -19.58660 30.12340 -6.30937 11.53020 -15.61530 35.14100 11.15710 8.45182 14.72190 0.82989 2.18128 49.47200 22.91640 48.10350 13.27390 23.51420 95.30770 -1.95118 9.77579 7.50743 46.77060 -9.43190 -4.06312 -32.26710 25.28770 56.77240 4.73238 13.98060 -0.98984 -6.47444 -6.58788 -5.57458 -44.47110 5.20782 8.48475 0.81504 36.82440 -4.52633 8.44785 -31.98210 1.55429 11.86230 36.46970 -15.81120 
18.51140 100.10000 -9.88371 -16.52230 -48.99880 -79.67500 6.32814 3.86106 0.14570 8.86020 8.56028 1.28792 -21.23630 11.18280 14.98320 0.00000 0.00000 0.00000 -62.18380 -20.03210 28.92270 -6.58192 12.93310 -20.04120 36.05860 10.92190 7.58603 14.88940 0.87030 2.37754 48.79770 20.91570 49.19740 13.51880 23.86870 95.63970 -1.26718 9.84459 7.72682 46.03790 -13.12360 0.22994 -36.05810 30.89770 58.24290 4.85228 12.85390 -0.95822 -5.63968 -5.09457 -6.45119 -43.36080 6.20080 8.18132 2.13610 38.27360 -6.60120 7.53881 -31.98930 1.35042 11.04660 34.60410 -15.62660 
18.98440 99.56260 -10.34280 -16.73480 -48.52400 -77.43800 6.07863 4.25232 0.30075 8.61767 9.42630 1.70482 -20.86580 11.49030 15.05260 0.00000 0.00000 0.00000 -60.18530 -20.76630 27.34910 -6.79233 14.53430 -24.62250 36.36250 10.66570 6.74530 15.01320 0.90574 2.55203 48.19490 19.06060 50.22600 13.61970 24.22760 95.99630 -0.96273 9.87584 7.92929 45.46090 -16.61430 5.12218 -39.76830 36.87100 60.13360 4.50805 12.55710 -0.88336 -6.84544 -6.23299 -7.38602 -42.22080 7.06084 7.90440 3.41858 39.48210 -8.75000 6.92385 -32.09360 1.21855 10.51680 33.37490 -15.49510 
19.42450 99.07840 -10.78840 -16.79510 -47.85800 -75.31900 5.95821 4.65973 0.50274 8.24452 10.30690 2.22539 -20.41580 11.45530 15.10310 0.00000 0.00000 0.00000 -58.00600 -21.98410 25.62140 -6.95492 16.25050 -29.30690 35.96010 10.39180 5.89779 15.09400 0.93552 2.70216 47.78240 17.40030 51.21580 13.53590 24.57630 96.30630 -1.01029 9.87051 8.05446 45.21590 -19.70120 10.22460 -43.14160 42.52640 62.01750 4.03696 12.69370 -0.80607 -8.97587 -8.47457 -8.40306 -40.92430 7.68179 7.52102 4.67790 40.45920 -10.81440 6.29663 -32.22250 1.08406 10.19190 32.62280 -15.39280 
19.80350 98.64130 -11.27880 -16.74540 -46.95660 -73.36610 5.91479 5.07070 0.71922 7.78399 11.18870 2.77388 -19.83350 10.87620 15.23360 0.00000 0.00000 0.00000 -55.68120 -23.74000 23.94700 -7.03591 18.17130 -34.20920 35.13770 10.16460 5.19256 15.12890 0.96885 2.88190 47.63960 15.90530 52.21010 13.32470 24.90910 96.49340 -1.15701 9.85467 8.09934 45.45940 -22.46910 15.19320 -46.17130 47.61370 63.75740 3.57055 12.89580 -0.73094 -11.19090 -10.63750 -9.65523 -39.43000 8.04363 6.96008 5.90880 41.24650 -12.70510 5.59273 -32.37390 0.93165 10.02920 32.19240 -15.43920 
20.11640 98.23850 -11.85500 -16.66520 -45.85520 -71.62320 5.91310 5.49584 0.92277 7.25215 12.09780 3.29262 -19.12540 9.70007 15.50940 0.00000 0.00000 0.00000 -53.28420 -25.88610 22.39090 -6.93794 20.31210 -39.46240 34.34930 10.04170 4.80157 15.12470 1.01413 3.13787 47.79470 14.52320 53.23330 13.06610 25.22970 96.50030 -1.21131 9.84884 8.10058 46.26890 -25.00280 19.77950 -48.90800 51.99790 65.37950 3.20549 12.93010 -0.66682 -12.90040 -12.01900 -11.03910 -37.76510 8.18041 6.21062 7.09452 41.89850 -14.35890 4.88671 -32.61220 0.78028 10.04410 32.05520 -15.77800 
20.37630 97.85960 -12.55570 -16.60510 -44.68330 -70.11760 5.84712 5.96118 1.11251 6.60745 13.07540 3.77253 -18.34370 8.08634 15.89500 0.00000 0.00000 0.00000 -50.92370 -28.17050 20.87110 -6.53758 22.51720 -45.10720 33.95440 10.04770 4.82784 15.08290 1.07277 3.47923 48.25110 13.21980 54.27170 12.81710 25.55240 96.32320 -1.17047 9.85332 8.07532 47.55100 -27.29890 23.82520 -51.27100 55.56530 66.88690 2.98386 12.75410 -0.62153 -13.95480 -12.53470 -12.42430 -36.03990 8.13527 5.32762 8.20968 42.45920 -15.77460 4.26696 -32.97360 0.65001 10.23840 32.24300 -16.34500 
20.60980 97.50620 -13.40260 -16.56800 -43.55570 -68.84200 5.63847 6.48575 1.30329 5.82041 14.14260 4.24594 -17.57950 6.35870 16.23100 0.00000 0.00000 0.00000 -48.74230 -30.37480 19.21070 -5.76923 24.48110 -51.03140 33.99700 10.16890 5.23922 14.96900 1.13607 3.86906 49.02370 11.98050 55.29980 12.56120 25.89890 96.03690 -1.16374 9.85435 7.99105 49.14300 -29.30920 27.20940 -53.07620 58.18750 68.12140 2.85907 12.43970 -0.58970 -14.48510 -12.47410 -13.65940 -34.34970 7.93947 4.37918 9.22181 42.92940 -17.02100 3.76752 -33.37000 0.54500 10.50970 32.67560 -16.78140 
20.83880 97.19420 -14.39380 -16.52180 -42.51660 -67.73660 5.26583 7.06912 1.51109 4.88576 15.28680 4.75674 -16.91000 4.83653 16.31410 0.00000 0.00000 0.00000 -46.85140 -32.40600 17.22830 -4.74051 25.91570 -56.96190 34.22490 10.34580 5.83007 14.76610 1.19010 4.23798 50.10220 10.79430 56.29800 12.19940 26.27890 95.76890 -1.31187 9.83948 7.81928 50.89480 -31.00910 29.83660 -54.15220 59.75040 68.77440 2.73016 12.07520 -0.55635 -14.60160 -12.19060 -14.40800 -32.71690 7.63198 3.39382 10.07190 43.26750 -18.15330 3.42543 -33.67690 0.47179 10.74600 33.24790 -16.76960 
21.06520 96.94530 -15.50920 -16.43010 -41.56510 -66.69330 4.73366 7.69731 1.73938 3.81966 16.47230 5.31996 -16.32650 3.62420 16.06210 0.00000 0.00000 0.00000 -45.28200 -34.30020 14.80970 -3.69663 26.75680 -62.56820 34.35000 10.49900 6.33956 14.51730 1.22640 4.52696 51.40720 9.65216 57.23930 11.65040 26.66430 95.62220 -1.62126 9.80892 7.57868 52.66520 -32.43080 31.64660 -54.42120 60.22960 68.62050 2.51458 11.74670 -0.51023 -14.36060 -11.92340 -14.37760 -31.11080 7.29072 2.35301 10.67660 43.42170 -19.12750 3.33358 -33.88480 0.45499 10.99510 34.03490 -16.41770 
21.27640 96.77610 -16.71330 -16.26930 -40.68170 -65.58740 4.07304 8.34976 1.97292 2.66883 17.65700 5.90082 -15.75480 2.57816 15.57720 0.00000 0.00000 0.00000 -44.03570 -36.14350 11.91750 -2.83301 27.15750 -67.63290 34.23600 10.58080 6.62298 14.27030 1.24479 4.71763 52.82470 8.55123 58.09260 10.96710 27.00390 95.60850 -1.99812 9.77321 7.30612 54.32210 -33.65930 32.64350 -53.93260 59.73290 67.73300 2.21322 11.52410 -0.45378 -13.84850 -11.72650 -13.63790 -29.49550 7.01140 1.23620 11.00420 43.34530 -19.87120 3.56157 -34.04980 0.51493 11.38150 35.13450 -16.11400 
21.46090 96.69150 -17.96200 -16.02240 -39.83030 -64.33740 3.35647 9.00067 2.19122 1.49861 18.80410 6.44541 -15.10770 1.45779 15.03860 0.00000 0.00000 0.00000 -43.13140 -38.00620 8.56964 -2.16154 27.32950 -72.13580 33.89980 10.59740 6.70436 14.03290 1.24851 4.82242 54.26270 7.49241 58.84940 10.31990 27.27500 95.65210 -2.34927 9.74186 7.02977 55.77920 -34.78220 32.94240 -52.82540 58.46490 66.41380 1.92020 11.45620 -0.40337 -13.22340 -11.57020 -12.56050 -27.85960 6.83991 0.07778 11.14140 42.98740 -20.42720 4.01243 -34.13470 0.62788 11.87880 36.34690 -16.07670 
